# xmcd
#
# Track frame offsets: 
#        150
#        11359
#        20934
#        30353
#        41480
#        52666
#        64108
#        74916
#        85425
#        98370
#        109267
#        123200
#        136861
#        148503
#        165168
#        179789
#        193630
#        205870
#        218395
#        234758
#
# Disc length: 3281 seconds
#
# Revision: 0
# Processed by: cddbd v1.5.2PL0 Copyright (c) Steve Scherf et al.
# Submitted via: ExactAudioCopy v0.99pb4
#
DISCID=070ccf14
DTITLE=Waylon Jennings - The Essential Waylon Jennings [CD1]
DYEAR=2007
DGENRE=Country
TTITLE0=Big Mamou
TTITLE1=That's the Chance I'll Have To Take
TTITLE2=Stop the World (And Let Me Off)
TTITLE3=Anita, You're Dreaming
TTITLE4=(That's What You Get) For Lovin' Me
TTITLE5=The Chokin' Kind
TTITLE6=Only Daddy That'll Walk the Line
TTITLE7=Just To Satisfy You
TTITLE8=Cedartown, Georgia
TTITLE9=The Talker
TTITLE10=Lovin' Her Was Easier (Than Anything I'll Ever Do Again)
TTITLE11=Sweet Dream Woman
TTITLE12=Ladies Love Outlaws
TTITLE13=Lonesome, On'ry And Mean
TTITLE14=Freedom To Stay
TTITLE15=Pretend I Never Happened
TTITLE16=You Can Have Her
TTITLE17=We Had It All
TTITLE18=Honky Tonk Heroes
TTITLE19=You Ask Me To 
EXTD=
EXTT0=
EXTT1=
EXTT2=
EXTT3=
EXTT4=
EXTT5=
EXTT6=
EXTT7=
EXTT8=
EXTT9=
EXTT10=
EXTT11=
EXTT12=
EXTT13=
EXTT14=
EXTT15=
EXTT16=
EXTT17=
EXTT18=
EXTT19=
PLAYORDER=
